<?xml version="1.0" standalone="no"?>
<!DOCTYPE svg PUBLIC "-//W3C//DTD SVG 20010904//EN"
 "http://www.w3.org/TR/2001/REC-SVG-20010904/DTD/svg10.dtd">
<svg version="1.0" xmlns="http://www.w3.org/2000/svg"
 width="1024.000000pt" height="1024.000000pt" viewBox="0 0 1024.000000 1024.000000"
 preserveAspectRatio="xMidYMid meet">
<metadata>
Created by potrace 1.14, written by Peter Selinger 2001-2017
</metadata>
<g transform="translate(0.000000,1024.000000) scale(0.100000,-0.100000)"
fill="#000000" stroke="none">
<path d="M4857 9904 c-270 -49 -517 -236 -657 -497 -67 -125 -96 -220 -115
-373 -3 -27 -6 -1213 -7 -2634 l-1 -2584 -21 -18 c-12 -9 -25 -17 -29 -18 -4
0 -13 -5 -20 -10 -7 -6 -41 -32 -77 -58 -160 -115 -317 -279 -433 -452 -154
-228 -273 -555 -304 -836 -15 -135 -8 -435 12 -527 2 -12 6 -35 9 -52 11 -74
57 -240 86 -310 4 -11 14 -36 21 -55 7 -19 32 -74 56 -122 212 -428 564 -753
1008 -931 102 -41 267 -88 359 -102 21 -4 48 -9 60 -11 139 -27 479 -22 621
11 6 1 28 5 50 9 409 79 817 332 1102 683 153 190 315 532 359 756 2 10 5 26
8 35 3 9 8 37 11 62 3 25 8 52 10 60 22 86 22 431 -1 543 -2 12 -6 38 -9 57
-21 153 -92 366 -181 541 -47 92 -147 252 -178 285 -6 6 -26 31 -45 55 -88
111 -278 279 -418 369 l-53 33 -1 2596 c-1 1428 -2 2613 -4 2633 -2 20 -9 63
-16 95 -7 32 -13 60 -14 63 -4 19 -40 119 -48 135 -6 11 -12 22 -12 25 -3 20
-63 120 -105 175 -135 178 -304 296 -510 356 -98 28 -391 36 -513 13z"/>
</g>
</svg>
